<svg width="83" height="22" viewBox="0 0 83 22" fill="none" xmlns="http://www.w3.org/2000/svg">
<path d="M12.9221 21.6938H16.6558L8.3093 0L0 21.6938H3.75839L4.64875 19.2654L11.9792 19.268L12.9221 21.6938ZM5.78611 16.2115C6.62793 13.7814 7.46899 11.3512 8.31107 8.92062L10.8443 16.218C9.15867 16.2163 7.47251 16.2137 5.78636 16.2112L5.78611 16.2115ZM30.5568 21.6938H34.6761L29.0098 12.544C29.0098 12.544 32.8828 11.7136 33.4664 8.05251C33.4664 8.05251 34.9666 1.00467 26.6508 0.585655H19.6557V4.1403L22.9621 9.37225V9.39451H19.6557V21.6938H23.1532V12.9158H25.1538L25.1555 12.9193H25.1598L30.5568 21.6938ZM23.8218 4.1403H26.8027C30.4318 4.42706 30.0759 6.76766 30.0759 6.76766C30.1142 9.26731 27.0396 9.34899 27.0396 9.34899L23.8218 4.1403Z" fill="#000F41"/>
<path d="M23.1533 12.9154V21.6934H23.1651V12.9187H25.1556L25.1539 12.9154H23.1533ZM53.1342 5.87189L55.6028 3.39297C55.6028 3.39297 52.9616 0.29249 48.2774 0.282122C48.2774 0.282122 42.6322 -0.0516709 39.4643 4.8604C39.4643 4.8604 35.5148 11.0942 39.4643 17.3802C39.4643 17.3802 42.2084 21.9913 48.1074 21.9913C48.1074 21.9913 52.2488 22.315 55.6028 18.926L53.1136 16.4099C53.1136 16.4099 51.3552 18.4597 48.3453 18.4693C48.3453 18.4693 41.6228 18.6736 41.2959 11.3441C41.2959 11.3441 40.8635 3.63598 48.7105 3.84991C48.7098 3.84991 51.1716 3.86964 53.1342 5.87189ZM71.9986 0.585317V9.34764H63.3301V0.585317H59.8293V21.6934H63.3301V12.8717H71.9986V21.6934H75.4861V0.585317H71.9986ZM81.12 21.8909C82.1583 21.8909 83.0001 21.0403 83.0001 19.9906C83.0001 18.9412 82.1583 18.0905 81.12 18.0905C80.0818 18.0905 79.2402 18.9412 79.2402 19.9906C79.2402 21.04 80.0818 21.8909 81.12 21.8909Z" fill="#000F41"/>
</svg>
